<svg xmlns="http://www.w3.org/2000/svg" width="24" height="25" viewBox="0 0 24 25">
  <defs>
    <style>
      .cls-1 {
        fill: #c3a771;
        fill-rule: evenodd;
      }
    </style>
  </defs>
  <path id="ico_print.svg" class="cls-1" d="M650,76.444V67.316a2.2,2.2,0,0,0-2.187-2.2h-2.37V60.464A1.462,1.462,0,0,0,643.99,59H632a1.462,1.462,0,0,0-1.453,1.464v4.653h-2.36a2.191,2.191,0,0,0-2.187,2.2v9.128a2.2,2.2,0,0,0,2.187,2.2h2.365v3.888A1.462,1.462,0,0,0,632.005,84H644a1.462,1.462,0,0,0,1.453-1.464V78.648h2.365a2.2,2.2,0,0,0,2.187-2.2h0Zm-18.208-15.98a0.215,0.215,0,0,1,.213-0.214H644a0.215,0.215,0,0,1,.213.214v4.653H631.792V60.464Zm12.416,22.071a0.215,0.215,0,0,1-.213.214h-11.99a0.215,0.215,0,0,1-.213-0.214V72.505H644.2v10.03h0Zm0.617-11.281h-13.65a0.624,0.624,0,0,0-.623.627V77.4h-2.365a0.952,0.952,0,0,1-.946-0.954V67.316a0.952,0.952,0,0,1,.946-0.954h19.621a0.953,0.953,0,0,1,.947.954v9.128a0.953,0.953,0,0,1-.947.954h-2.365V71.883a0.617,0.617,0,0,0-.618-0.627h0Zm0,0-15.61-2.9a0.629,0.629,0,0,0-.182.444,0.639,0.639,0,0,0,.182.444,0.62,0.62,0,0,0,.881,0,0.625,0.625,0,1,0-.881-0.888h0Zm0,0,12.3,8.648h-7.038a0.628,0.628,0,0,0,0,1.255h7.033a0.628,0.628,0,0,0,0-1.255h0Zm0,0,0,2.832h-7.038a0.628,0.628,0,0,0,0,1.255h7.033a0.628,0.628,0,0,0,0-1.255h0Zm0,0,0-5.668h-7.038a0.628,0.628,0,0,0,0,1.255h7.033a0.628,0.628,0,0,0,0-1.255h0Zm0,0" transform="translate(-626 -59)"/>
</svg>
