<svg xmlns="http://www.w3.org/2000/svg" width="22" height="24" viewBox="0 0 22 24">
  <defs>
    <style>
      .cls-1 {
        fill: #c3a771;
        fill-rule: evenodd;
      }
    </style>
  </defs>
  <path id="icon_logout.svg" class="cls-1" d="M726.963,71.16a0.454,0.454,0,0,0,0-.328,0.462,0.462,0,0,0-.091-0.14l-4.98-5.141a0.408,0.408,0,0,0-.588,0,0.44,0.44,0,0,0,0,.607l4.273,4.411h-12.7a0.428,0.428,0,0,0,0,.855h12.7L721.3,75.835a0.439,0.439,0,0,0,0,.606,0.406,0.406,0,0,0,.588,0l4.98-5.142a0.427,0.427,0,0,0,.091-0.138h0Zm0,0-7.441,1.977a0.423,0.423,0,0,0-.415.429v8.57H705.825V59.857h13.282v8.57a0.416,0.416,0,1,0,.831,0v-9A0.423,0.423,0,0,0,719.522,59H705.409a0.422,0.422,0,0,0-.415.429V82.565a0.423,0.423,0,0,0,.415.429h14.113a0.424,0.424,0,0,0,.416-0.429v-9a0.424,0.424,0,0,0-.416-0.429h0Zm0,0" transform="translate(-705 -59)"/>
</svg>
