<?xml version="1.0" encoding="utf-8"?>
<!-- Generator: Adobe Illustrator 21.1.0, SVG Export Plug-In . SVG Version: 6.00 Build 0)  -->
<svg version="1.1" id="レイヤー_1" xmlns="http://www.w3.org/2000/svg" xmlns:xlink="http://www.w3.org/1999/xlink" x="0px"
	 y="0px" viewBox="0 0 595.3 841.9" style="enable-background:new 0 0 595.3 841.9;" xml:space="preserve">
<style type="text/css">
	.st0{fill:#FFFFFF;}
</style>
<g>
	<g>
		<path class="st0" d="M223.2,193.5L223.2,193.5l-3.8-5.4c-0.4-0.6-1.2-0.3-1.2,0.4v4.5c0,0.4-0.3,0.7-0.7,0.7h-0.1
			c-0.4,0-0.7-0.3-0.7-0.7v-9.3v-0.3c0-0.7,0.9-0.9,1.2-0.4l4.7,6.8c0.3,0.4,0.8,0.4,1.1,0l4.7-6.8c0.4-0.5,1.2-0.3,1.2,0.4v0.3v9.3
			c0,0.4-0.3,0.7-0.7,0.7h-0.2c-0.4,0-0.7-0.3-0.7-0.7v-4.5c0-0.7-0.9-0.9-1.2-0.4L223.2,193.5z"/>
		<path class="st0" d="M260.4,193.7h-0.5c-0.2,0-0.5-0.1-0.6-0.3l-1-1.7c-0.1-0.2-0.3-0.3-0.6-0.3h-6c-0.2,0-0.5,0.1-0.6,0.3l-1,1.7
			c-0.1,0.2-0.3,0.3-0.6,0.3H249c-0.5,0-0.9-0.6-0.6-1l5.7-9.5c0.3-0.4,0.9-0.4,1.2,0l5.7,9.5C261.2,193.1,260.9,193.7,260.4,193.7z
			 M254.1,186.2l-1.6,2.7c-0.3,0.5,0.1,1,0.6,1h3.2c0.5,0,0.8-0.6,0.6-1l-1.6-2.7C255,185.8,254.3,185.8,254.1,186.2z"/>
		<path class="st0" d="M288.5,193.5l-3.5-3.7c-0.1-0.1-0.3-0.2-0.5-0.2h-2.9c-0.4,0-0.7,0.3-0.7,0.7v2.7c0,0.4-0.3,0.7-0.7,0.7H280
			c-0.4,0-0.7-0.3-0.7-0.7v-11c0-0.4,0.3-0.7,0.7-0.7h5.2c3,0,4.9,1.6,4.9,4c0,1.9-1.1,3.1-2.6,3.7c-0.5,0.2-0.6,0.7-0.3,1.1
			l2.3,2.4c0.4,0.4,0.1,1.1-0.5,1.1h0C288.8,193.7,288.6,193.6,288.5,193.5z M285,182.7h-3.5c-0.4,0-0.7,0.3-0.7,0.7v4.1
			c0,0.4,0.3,0.7,0.7,0.7h3.5c2,0,3.5-1,3.5-2.8C288.5,183.7,287.2,182.7,285,182.7z"/>
		<path class="st0" d="M319.1,187.9c0,3.9-2.3,6-5.7,6c-3.3,0-5.6-2.1-5.6-5.9v-6c0-0.4,0.3-0.7,0.7-0.7h0.2c0.4,0,0.7,0.3,0.7,0.7
			v5.9c0,2.9,1.5,4.6,4.1,4.6c2.5,0,4.1-1.5,4.1-4.5v-6c0-0.4,0.3-0.7,0.7-0.7h0.2c0.4,0,0.7,0.3,0.7,0.7V187.9z"/>
		<path class="st0" d="M341.9,193.7h-0.2c-0.4,0-0.7-0.3-0.7-0.7v-9.6c0-0.4-0.3-0.7-0.7-0.7h-3.2c-0.4,0-0.7-0.3-0.7-0.7V182
			c0-0.4,0.3-0.7,0.7-0.7h9.3c0.4,0,0.7,0.3,0.7,0.7v0.1c0,0.4-0.3,0.7-0.7,0.7h-3.2c-0.4,0-0.7,0.3-0.7,0.7v9.6
			C342.6,193.4,342.3,193.7,341.9,193.7z"/>
		<path class="st0" d="M345.2,193.7H345c-0.4,0-0.7-0.3-0.7-0.7v-9.6c0-0.4-0.3-0.7-0.7-0.7h-3.2c-0.4,0-0.7-0.3-0.7-0.7V182
			c0-0.4,0.3-0.7,0.7-0.7h9.3c0.4,0,0.7,0.3,0.7,0.7v0.1c0,0.4-0.3,0.7-0.7,0.7h-3.2c-0.4,0-0.7,0.3-0.7,0.7v9.6
			C345.8,193.4,345.5,193.7,345.2,193.7z"/>
		<path class="st0" d="M370.5,194.2c-4.1,0-6.9-3.2-6.9-7c0-3.8,2.8-7.1,7-7.1c4.1,0,6.9,3.2,6.9,7
			C377.5,190.9,374.7,194.2,370.5,194.2z M370.5,181.6c-3.1,0-5.3,2.5-5.3,5.6c0,3.1,2.3,5.6,5.4,5.6s5.3-2.5,5.3-5.6
			C375.9,184.1,373.7,181.6,370.5,181.6z"/>
	</g>
	<g>
		<path class="st0" d="M185.9,179.4l-0.5,1.9c-0.8-0.3-1.7-0.5-2.6-0.5c-0.9,0-1.7,0.2-2.5,0.4l-0.5-1.9c-3.6,1.2-6.2,4.7-6.2,8.7
			c0,5.1,4.1,9.2,9.2,9.2c5.1,0,9.2-4.1,9.2-9.2C192,184.1,189.4,180.7,185.9,179.4z M190.8,186.5c0.2,0,0.4,0.1,0.4,0.3
			c0,0.2-0.1,0.4-0.3,0.4c-0.2,0-0.4-0.1-0.4-0.3C190.4,186.7,190.6,186.5,190.8,186.5z M185.3,181.7c2.5,1,4.4,3.5,4.4,6.4
			c0,3.8-3.1,6.9-6.9,6.9c-3.8,0-6.9-3.1-6.9-6.9c0-3,1.9-5.5,4.5-6.5c0.7-0.3,1.5-0.4,2.4-0.4C183.6,181.2,184.5,181.4,185.3,181.7
			z M174.9,190c-0.2,0-0.4-0.1-0.4-0.3c0-0.2,0.1-0.4,0.3-0.4c0.2,0,0.4,0.1,0.4,0.3C175.2,189.8,175.1,190,174.9,190z M174.7,187.2
			c-0.2,0-0.3-0.2-0.3-0.4c0-0.2,0.2-0.3,0.4-0.3c0.2,0,0.3,0.2,0.3,0.4C175.1,187.1,174.9,187.2,174.7,187.2z M175.9,192.6
			c-0.2,0.1-0.4,0-0.5-0.1c-0.1-0.2,0-0.4,0.1-0.5s0.4,0,0.5,0.1C176.2,192.3,176.1,192.5,175.9,192.6z M177.9,194.7
			c-0.1,0.2-0.4,0.2-0.5,0c-0.2-0.1-0.2-0.4,0-0.5c0.1-0.2,0.4-0.2,0.5,0C178,194.3,178,194.6,177.9,194.7z M180.4,196
			c-0.1,0.2-0.3,0.3-0.5,0.2c-0.2-0.1-0.3-0.3-0.2-0.5c0.1-0.2,0.3-0.3,0.5-0.2C180.3,195.6,180.4,195.8,180.4,196z M185.7,196.2
			c-0.2,0.1-0.4,0-0.5-0.2c-0.1-0.2,0-0.4,0.2-0.5c0.2-0.1,0.4,0,0.5,0.2C186,196,185.9,196.2,185.7,196.2z M188.3,194.8
			c-0.2,0.1-0.4,0.1-0.5,0c-0.1-0.2-0.1-0.4,0-0.5c0.2-0.1,0.4-0.1,0.5,0C188.5,194.4,188.4,194.6,188.3,194.8z M190.2,192.5
			c-0.1,0.2-0.3,0.2-0.5,0.1c-0.2-0.1-0.2-0.3-0.1-0.5c0.1-0.2,0.3-0.2,0.5-0.1C190.2,192.1,190.3,192.3,190.2,192.5z M190.8,190
			c-0.2,0-0.3-0.2-0.3-0.4c0-0.2,0.2-0.3,0.4-0.3c0.2,0,0.3,0.2,0.3,0.4C191.2,189.9,191,190,190.8,190z"/>
		<polygon class="st0" points="181.4,178.7 181.8,178.9 181.8,179 181.2,180.8 182.8,179.7 184.4,180.8 183.8,179 183.8,178.9 
			184.1,178.7 184.5,178.4 185.4,177.8 183.4,177.8 182.8,175.9 182.2,177.8 180.2,177.8 181.1,178.4 		"/>
		<path class="st0" d="M176.2,188.1c0,0.4,0,0.8,0.1,1.1l0,0.1l0,0c0,0.1,0,0.1,0,0.2c0-0.1,0-0.1,0.1-0.2l1.6,0.1
			c0,0.2-0.1,0.3-0.1,0.5v-0.2h-1.6v0.2h1.6c0,0.1,0,0.2-0.1,0.3l0,0l0,0.2l-1.2,0.1c0,0,1.1,2.7,4.3,3.7c-0.7-1.5-0.7-1.5-0.7-1.5
			l1-3.8l0.2,0l0.6,0.4l0.3,2.7l0.5-2c0,0,0,0,0.3-0.3c0,0,0,0,0,0c0,0,0,0.1,0,0.1c0,0.2,0.1,0.5,0.2,0.7c0.4,1,1.1,1.8,1.6,2.3
			c0.2,0.2,0.3,0.3,0.4,0.3c0.3,0.2,0.5,0.3,0.8,0.5c1.5-0.9,2.5-2.5,2.9-3.7c0.2-0.7,0.2-1.1,0.3-1.8c0-0.8-0.1-1-0.2-1.6
			c-0.3-1.5-1.5-3.2-3.1-4.1c-0.3-0.2-0.6-0.3-0.8-0.4c-1.5-0.6-3.2-0.6-4.7,0c-0.3,0.1-0.7,0.3-1,0.4
			C177.7,183.5,176.3,185.4,176.2,188.1z M179.3,183.1l0.1-0.1l0.1,0l0,0.1L179.3,183.1L179.3,183.1L179.3,183.1z M179.7,184.3l1,1
			c-0.1,0.1-0.2,0.1-0.3,0.2l-1.1-0.8C179.4,184.6,179.5,184.4,179.7,184.3z M180,185.9l-1.3-0.7c0.1-0.1,0.2-0.2,0.4-0.3l1.1,0.8
			C180.1,185.7,180.1,185.8,180,185.9z M179,183.3l0.1-0.1l0.1,0l0,0.1L179,183.3L179,183.3L179,183.3z M178.7,183.5l0.1-0.1l0.1,0
			l0,0.1L178.7,183.5L178.7,183.5L178.7,183.5z M178.4,183.8l0.1-0.1l0.1,0l0,0.1L178.4,183.8L178.4,183.8L178.4,183.8L178.4,183.8z
			 M178.3,183.9L178.3,183.9L178.3,183.9l-0.1,0.2l-0.1,0l0-0.1L178.3,183.9z M178.1,184.1L178.1,184.1L178.1,184.1l-0.1,0.2l-0.1,0
			l0-0.1L178.1,184.1z M178.1,185.8l1.3,0.5l-1.2-0.7c0.1-0.1,0.2-0.2,0.3-0.4l1.3,0.7c-0.2,0.2-0.3,0.4-0.5,0.6l-1.4-0.4
			C178,186.1,178.1,185.9,178.1,185.8z M178.4,188.3L177,188c0.1-0.1,0.1-0.3,0.2-0.4l1.4,0.2C178.5,188,178.5,188.1,178.4,188.3z
			 M178.6,187.7l-1.4-0.2c0.1-0.2,0.2-0.4,0.3-0.5l0,0.1l1.4,0.3C178.8,187.5,178.7,187.6,178.6,187.7z M178.9,187.2l-1.4-0.3
			c0.1-0.2,0.2-0.3,0.3-0.5l1.4,0.4C179.1,186.9,179,187,178.9,187.2z M177.9,184.4L177.9,184.4L177.9,184.4l0,0.2l-0.1,0l0-0.1
			L177.9,184.4z M177.7,184.7L177.7,184.7L177.7,184.7l0,0.2v0l-0.1,0l0-0.1L177.7,184.7z M177.5,185L177.5,185L177.5,185l0,0.2
			l-0.1,0l0-0.1L177.5,185z M177.3,185.3L177.3,185.3L177.3,185.3l0,0.2l-0.1,0l0-0.1L177.3,185.3z M177.1,185.6L177.1,185.6
			L177.1,185.6l0,0.2l0,0l-0.1,0l0-0.1L177.1,185.6z M177,186L177,186L177,186l0,0.2l-0.1,0l0-0.1L177,186z M176.9,186.3
			L176.9,186.3L176.9,186.3l0,0.2h0l0,0v0l0,0l0,0L176.9,186.3z M176.8,186.7L176.8,186.7L176.8,186.7l0,0.2l0,0l0,0L176.8,186.7z
			 M176.7,187L176.7,187L176.7,187l0,0.2l0,0l0,0L176.7,187z M176.7,187.4L176.7,187.4L176.7,187.4l0.1,0.2v0l0,0l0,0L176.7,187.4z
			 M176.6,187.7L176.6,187.7L176.6,187.7l0.1,0.2l0,0l0,0l0,0L176.6,187.7z M176.6,188.1L176.6,188.1L176.6,188.1L176.6,188.1l0,0.1
			L176.6,188.1L176.6,188.1z M176.5,189.2c0-0.1,0.1-0.2,0.1-0.3l1.5,0l-1.3-0.3c0-0.1,0.1-0.2,0.1-0.3l1.5,0.2
			c-0.1,0.3-0.2,0.5-0.3,0.8L176.5,189.2z M179.5,192.7l-1.6-2.4c0.1-0.4,0.4-1.4,1.1-2.4l-0.1,0.6l0.1-0.7c0.1-0.2,0.2-0.4,0.4-0.6
			l-0.1,0.9l0.2-1.1c0.6-0.7,1.3-1.5,2.3-2c-0.2,0.5-0.4,1.2-0.2,2.1l-0.1,0.5L179.5,192.7z M185.8,189.8l-0.3-0.2l0.7-0.3l-0.7,0.2
			l1.9-1.7l1,1.2l-1.1,2l-1.4-1.1l0.6-0.3L185.8,189.8z M186.1,193.4L186.1,193.4l-0.1,0l0-0.1L186.1,193.4L186.1,193.4L186.1,193.4
			z M186.5,193.1l-0.1,0.1l-0.1,0l0-0.1L186.5,193.1L186.5,193.1L186.5,193.1z M186.7,192.9l-0.1,0.1l-0.1,0l0-0.1L186.7,192.9
			L186.7,192.9L186.7,192.9z M187,192.7l-0.1,0.1l-0.1,0l0-0.1L187,192.7L187,192.7L187,192.7z M187.1,192.6L187.1,192.6
			L187.1,192.6l0.1-0.2l0.1,0l0,0.1L187.1,192.6z M187.4,192.3L187.4,192.3L187.4,192.3l0.1-0.2l0.1,0l0,0.1L187.4,192.3z
			 M187.6,192L187.6,192L187.6,192l0-0.2l0.1,0l0,0.1L187.6,192z M187.8,191.8L187.8,191.8L187.8,191.8l0-0.2v0l0.1,0l0,0.1
			L187.8,191.8z M188,191.5L188,191.5L188,191.5l0-0.2l0.1,0l0,0.1L188,191.5z M188.2,191.2L188.2,191.2L188.2,191.2l0-0.2l0,0
			l0.1,0l0,0.1L188.2,191.2z M188.4,190.8L188.4,190.8L188.4,190.8l0-0.2l0.1,0l0,0.1L188.4,190.8z M188.5,190.5L188.5,190.5
			L188.5,190.5l0-0.2l0.1,0l0,0.1L188.5,190.5z M188.6,190.2L188.6,190.2L188.6,190.2l0-0.2l0.1,0l0,0.1L188.6,190.2z M188.7,189.8
			L188.7,189.8L188.7,189.8l0-0.2v0l0,0l0,0L188.7,189.8z M188.8,189.5L188.8,189.5L188.8,189.5l0-0.2l0,0l0,0L188.8,189.5z
			 M188.9,189.1L188.9,189.1L188.9,189.1l-0.1-0.2v0l0,0l0,0L188.9,189.1z M188.9,188.8L188.9,188.8L188.9,188.8l-0.1-0.2l0,0l0,0
			L188.9,188.8z M189,188.4L189,188.4L189,188.4l-0.1-0.2l0,0l0,0L189,188.4z M189,188.1L189,188.1L189,188.1l-0.1-0.2l0,0l0,0
			L189,188.1z M189,187.7L189,187.7L189,187.7l-0.1-0.2h0l0,0l0,0L189,187.7z M188.9,187.4L188.9,187.4L188.9,187.4l-0.1-0.2l0,0
			l0,0L188.9,187.4z M188.9,187L188.9,187L188.9,187l-0.1-0.2h0l0,0l0,0L188.9,187z M188.7,186.5l0,0.2l0,0l0,0L188.7,186.5
			L188.7,186.5L188.7,186.5z M188.6,186.1l0.1,0.2l0,0.1l-0.1,0L188.6,186.1L188.6,186.1L188.6,186.1z M188.5,185.8l0.1,0.2l0,0.1
			l-0.1,0L188.5,185.8L188.5,185.8L188.5,185.8z M188.3,185.5L188.3,185.5l0.1,0.2l0,0.1l-0.1,0L188.3,185.5L188.3,185.5z
			 M188.1,185.2L188.1,185.2l0.1,0.2l0,0.1l-0.1,0L188.1,185.2L188.1,185.2z M188,184.9L188,184.9l0.1,0.2l0,0.1l-0.1,0L188,184.9
			L188,184.9L188,184.9z M187.8,184.6L187.8,184.6L187.8,184.6l0.2,0.1l0,0.1l-0.1,0L187.8,184.6L187.8,184.6z M187.6,184.3
			L187.6,184.3l0.2,0.1l0,0.1l-0.1,0L187.6,184.3L187.6,184.3z M187.3,184L187.3,184l0.2,0.1l0,0.1l-0.1,0L187.3,184L187.3,184z
			 M187.1,183.8l0.1,0.1l0,0.1l-0.1,0L187.1,183.8L187.1,183.8L187.1,183.8z M185,189.3c-0.1,0-0.3,0.1-0.5,0.1
			c-0.1,0-0.3,0-0.5-0.1c-0.9-0.6-1.5-1.3-1.7-2.1c-0.3-1.2,0.3-2.3,0.5-2.6c0.9-0.3,1.8-0.6,3-0.6l-0.7,0.7l2.1,2.7L185,189.3z
			 M182,183.1c0.2,0,0.4-0.1,0.5-0.1l0.1,0.4l0.2,0.8c-0.1,0-0.2,0.1-0.3,0.1c-0.1,0-0.1,0-0.2,0.1l-0.3-1L182,183.1z M183.3,183.3
			v0.7c0,0-0.1,0-0.3,0.1l-0.2-0.8l-0.1-0.4c0.2,0,0.4-0.1,0.6-0.1V183.3z M186.9,183.5l0.1,0.1l0,0.1l-0.1,0L186.9,183.5
			L186.9,183.5L186.9,183.5L186.9,183.5z M186.6,183.3l0.1,0.1l0,0.1l-0.1,0L186.6,183.3L186.6,183.3L186.6,183.3z M186.3,183.1
			l0.1,0.1l0,0.1l-0.1,0L186.3,183.1L186.3,183.1L186.3,183.1z M186,182.9l0.2,0.1l0,0.1l-0.1,0L186,182.9L186,182.9L186,182.9
			L186,182.9z M185.7,182.7l0.2,0.1l0,0.1l-0.1,0L185.7,182.7L185.7,182.7L185.7,182.7z M185.4,182.5l0.2,0.1l0,0.1l-0.1,0
			L185.4,182.5L185.4,182.5L185.4,182.5L185.4,182.5z M185.1,182.4L185.1,182.4l0.2,0.1l0,0.1l-0.1,0L185.1,182.4L185.1,182.4
			L185.1,182.4L185.1,182.4z M184.7,182.3l0.2,0.1l0,0.1l-0.1,0L184.7,182.3L184.7,182.3L184.7,182.3L184.7,182.3z M184.4,182.2
			l0.2,0l0,0l0,0L184.4,182.2L184.4,182.2L184.4,182.2L184.4,182.2z M184,182.1l0.2,0l0,0l0,0L184,182.1L184,182.1L184,182.1
			L184,182.1z M183.7,182l0.2,0l0,0l0,0L183.7,182L183.7,182L183.7,182z M183.3,182l0.2,0l0,0l0,0L183.3,182L183.3,182L183.3,182z
			 M183,182l0.2,0l0,0l0,0L183,182L183,182L183,182z M182.6,182l0.2,0l0,0l0,0L182.6,182L182.6,182L182.6,182z M182.3,182l0.2,0l0,0
			l0,0L182.3,182L182.3,182L182.3,182z M181.9,182l0.2,0l0,0l0,0L181.9,182L181.9,182L181.9,182L181.9,182z M181.5,182.1l0.2,0l0,0
			l0,0L181.5,182.1L181.5,182.1L181.5,182.1L181.5,182.1z M181.2,182.2l0.2,0l0,0l0,0L181.2,182.2L181.2,182.2L181.2,182.2z
			 M180.9,182.3l0.2-0.1l0,0l0,0L180.9,182.3L180.9,182.3L180.9,182.3z M180.7,182.3L180.7,182.3L180.7,182.3l-0.1,0.1l0,0l-0.1,0
			l0-0.1l0,0L180.7,182.3z M180.2,182.5l0.2-0.1l0.1,0l0,0.1L180.2,182.5L180.2,182.5L180.2,182.5z M179.9,182.7l0.2-0.1l0.1,0
			l0,0.1L179.9,182.7L179.9,182.7L179.9,182.7z M180.3,183.9l0.8,1.1l0.1-0.1l-0.8-1.1c0.1-0.1,0.2-0.2,0.4-0.2l0.7,1.1l-0.6-1.3
			c0.1,0,0.1,0,0.2-0.1c0.2-0.1,0.4-0.1,0.6-0.2l0.1,0.2l0.3,1.1l0.1,0c0,0-0.1,0-0.1,0.1l0,0c0,0,0,0,0,0c-0.4,0.2-0.9,0.4-1.4,0.8
			l0.1-0.1l-0.9-0.9C180,184.1,180.2,184,180.3,183.9z M179.6,182.9l0.2-0.1l0.1,0l0,0.1L179.6,182.9L179.6,182.9L179.6,182.9
			L179.6,182.9z"/>
		<polygon class="st0" points="184.2,186 184.6,186.5 185,186.3 184.2,185.8 		"/>
		<path class="st0" d="M183.2,194.3l-0.8-0.5l-1.4,0.5c0,0,2.7,1,5.2-0.6C184.1,194.5,183.2,194.3,183.2,194.3z"/>
	</g>
</g>
</svg>
