<svg xmlns="http://www.w3.org/2000/svg" width="409.812" height="16.688" viewBox="0 0 409.812 16.688">
  <defs>
    <style>
      .cls-1 {
        fill: #c3a771;
        fill-rule: evenodd;
      }
    </style>
  </defs>
  <path id="logo_rmt.svg" class="cls-1" d="M184.864,320.666v-4.4h5.148a8.242,8.242,0,0,1,1.786.163,3.185,3.185,0,0,1,1.131.461,1.733,1.733,0,0,1,.595.7,2.252,2.252,0,0,1,0,1.755,1.73,1.73,0,0,1-.595.7,3.167,3.167,0,0,1-1.131.461,8.18,8.18,0,0,1-1.786.163h-5.148Zm-4.255-6.961v0.536q0.862,0,.863.535v13.506q0,0.536-.863.535v0.536h5.148v-0.536a1.3,1.3,0,0,1-.7-0.134,0.456,0.456,0,0,1-.194-0.4v-5.295h4.256l3.273,4.64c0.159,0.219.278,0.392,0.357,0.521a0.679,0.679,0,0,1,.119.342,0.27,0.27,0,0,1-.193.238,1.087,1.087,0,0,1-.461.089v0.536h5.564v-0.536a2.5,2.5,0,0,1-.52-0.059,0.81,0.81,0,0,1-.492-0.357l-3.957-5.652a6.24,6.24,0,0,0,3.124-1.4,3.827,3.827,0,0,0,1.161-3,4.722,4.722,0,0,0-.447-2.157,3.7,3.7,0,0,0-1.279-1.427,5.849,5.849,0,0,0-1.994-.8,12.233,12.233,0,0,0-2.589-.253H180.609Zm28.537,10.174,2.113-5,2.41,5h-4.523Zm-5.416,5.474h3.988v-0.536a1.153,1.153,0,0,1-.417-0.059,0.283,0.283,0,0,1-.148-0.3,0.961,0.961,0,0,1,.074-0.342c0.049-.129.114-0.272,0.193-0.431l0.834-1.607h6.368l0.8,1.7c0.06,0.159.109,0.288,0.149,0.387a0.865,0.865,0,0,1,.059.327,0.338,0.338,0,0,1-.163.327,0.65,0.65,0,0,1-.313.089v0.447h4.226v-0.536a1.362,1.362,0,0,1-.387-0.178,1.078,1.078,0,0,1-.327-0.387l-4.821-10.114q-0.149-.327-0.283-0.58a0.967,0.967,0,0,1-.134-0.432,0.214,0.214,0,0,1,.1-0.238,0.664,0.664,0,0,0,.193-0.089v-0.535h-4.493V316.8c0.059,0.04.113,0.075,0.163,0.1a0.247,0.247,0,0,1,.075.223,1.273,1.273,0,0,1-.1.491q-0.1.253-.282,0.67l-4.434,9.668a3.149,3.149,0,0,1-.342.52,0.9,0.9,0,0,1-.581.342v0.536Zm32.764-9.1,1.964-2.826-0.357-.208a1.129,1.129,0,0,0-.224.148,0.371,0.371,0,0,1-.252.09,2.018,2.018,0,0,1-.685-0.209q-0.477-.207-1.19-0.476a12.5,12.5,0,0,0-1.652-.475,9.533,9.533,0,0,0-2.068-.209,9.8,9.8,0,0,0-2.842.417,7.318,7.318,0,0,0-2.455,1.264,6.459,6.459,0,0,0-1.726,2.1,6.2,6.2,0,0,0-.654,2.915,6.293,6.293,0,0,0,.654,2.931,6.525,6.525,0,0,0,4.077,3.346,9.707,9.707,0,0,0,2.708.387,11.4,11.4,0,0,0,2.425-.238,11.2,11.2,0,0,0,1.905-.58q0.817-.342,1.354-0.61a2.072,2.072,0,0,1,.773-0.268,1.589,1.589,0,0,1,.506.149l0.3-.149-2.2-3.153-0.328.3a1.235,1.235,0,0,1,.03.3v0.238a0.865,0.865,0,0,1-.431.6,5.033,5.033,0,0,1-1.116.61,10.915,10.915,0,0,1-1.518.491,6.722,6.722,0,0,1-1.637.208,4.8,4.8,0,0,1-1.7-.312,4.478,4.478,0,0,1-1.488-.923,4.749,4.749,0,0,1-1.056-1.457,4.425,4.425,0,0,1-.4-1.919,4.8,4.8,0,0,1,.357-1.9,3.8,3.8,0,0,1,1.012-1.4,4.374,4.374,0,0,1,1.533-.848,6.349,6.349,0,0,1,1.949-.282,7.628,7.628,0,0,1,1.636.163,7.117,7.117,0,0,1,1.3.4,3.426,3.426,0,0,1,.848.491,0.684,0.684,0,0,1,.3.4,0.628,0.628,0,0,0,.014.149,0.485,0.485,0,0,1,.015.119Zm21.485-1.22v-3.3h-0.536q0,0.535-.922.536H245.957V316.8a0.518,0.518,0,0,1,.3.1,0.39,0.39,0,0,1,.149.342v11.126a0.387,0.387,0,0,1-.149.342,0.511,0.511,0,0,1-.3.1v0.536h10.921a4.922,4.922,0,0,1,.6.029,0.259,0.259,0,0,1,.238.3h0.536v-3.124h-0.536a0.5,0.5,0,0,1-.238.432,1.027,1.027,0,0,1-.6.163H249.26v-3.51H253.6a4.374,4.374,0,0,1,.923.075,0.284,0.284,0,0,1,.238.4h0.6v-3.153h-0.535a0.365,0.365,0,0,1-.239.4,2.684,2.684,0,0,1-.744.075H249.26v-2.975h7.261q0.921,0,.922.565h0.536ZM278.9,329.353h4.464v-0.536q-0.834,0-.833-0.535v-9.906h0.059l5.863,10.977h0.089l5.981-10.947h0.06v9.876q0,0.536-.8.535v0.536h4.672v-0.536a0.668,0.668,0,0,1-.416-0.134,0.469,0.469,0,0,1-.179-0.4V314.717a0.394,0.394,0,0,1,.179-0.372,0.813,0.813,0,0,1,.416-0.1v-0.536h-5.5v0.536a0.318,0.318,0,0,1,.387.327,0.974,0.974,0,0,1-.1.4c-0.07.148-.174,0.352-0.313,0.61l-4.285,7.645-4.255-7.735q-0.15-.267-0.268-0.5a0.919,0.919,0,0,1-.119-0.387,0.287,0.287,0,0,1,.164-0.268,0.655,0.655,0,0,1,.312-0.089v-0.536H278.9v0.536a0.817,0.817,0,0,1,.417.1,0.394,0.394,0,0,1,.178.372v13.565a0.469,0.469,0,0,1-.178.4,0.671,0.671,0,0,1-.417.134v0.536Zm31.6-5.474,2.113-5,2.41,5H310.5Zm-5.416,5.474h3.988v-0.536a1.153,1.153,0,0,1-.417-0.059,0.282,0.282,0,0,1-.149-0.3,0.964,0.964,0,0,1,.075-0.342,4.621,4.621,0,0,1,.193-0.431l0.833-1.607h6.368l0.8,1.7c0.059,0.159.109,0.288,0.149,0.387a0.885,0.885,0,0,1,.059.327,0.338,0.338,0,0,1-.164.327,0.647,0.647,0,0,1-.312.089v0.447h4.226v-0.536a1.362,1.362,0,0,1-.387-0.178,1.079,1.079,0,0,1-.328-0.387l-4.82-10.114q-0.15-.327-0.283-0.58a0.967,0.967,0,0,1-.134-0.432,0.214,0.214,0,0,1,.1-0.238,0.669,0.669,0,0,0,.194-0.089v-0.535H310.59V316.8c0.06,0.04.114,0.075,0.164,0.1a0.25,0.25,0,0,1,.074.223,1.29,1.29,0,0,1-.1.491q-0.1.253-.283,0.67l-4.434,9.668a3.025,3.025,0,0,1-.342.52,0.9,0.9,0,0,1-.58.342v0.536Zm22.08,0h3.66v-0.536c-0.416,0-.624-0.148-0.624-0.446v-8.657l7.379,7.854q0.359,0.387.64,0.684a0.878,0.878,0,0,1,.283.417c0,0.1-.07.148-0.208,0.148v0.536h3.868v-0.536a0.438,0.438,0,0,1-.535-0.446V317.245a0.438,0.438,0,0,1,.535-0.446v-0.535h-3.63V316.8c0.4,0,.595.149,0.595,0.446v8.062l-7.142-7.556a2.45,2.45,0,0,1-.655-0.8c0-.079.07-0.129,0.209-0.149v-0.535h-4.375V316.8a0.439,0.439,0,0,1,.536.446v11.126a0.438,0.438,0,0,1-.536.446v0.536Zm26.871-5.474,2.113-5,2.411,5h-4.524Zm-5.416,5.474h3.988v-0.536a1.153,1.153,0,0,1-.417-0.059,0.283,0.283,0,0,1-.148-0.3,0.961,0.961,0,0,1,.074-0.342c0.049-.129.114-0.272,0.193-0.431l0.834-1.607h6.368l0.8,1.7c0.06,0.159.109,0.288,0.149,0.387a0.865,0.865,0,0,1,.06.327,0.338,0.338,0,0,1-.164.327,0.65,0.65,0,0,1-.313.089v0.447h4.226v-0.536a1.362,1.362,0,0,1-.387-0.178,1.078,1.078,0,0,1-.327-0.387l-4.821-10.114q-0.148-.327-0.283-0.58a0.967,0.967,0,0,1-.134-0.432,0.214,0.214,0,0,1,.1-0.238,0.652,0.652,0,0,0,.193-0.089v-0.535h-4.493V316.8c0.059,0.04.114,0.075,0.163,0.1a0.247,0.247,0,0,1,.075.223,1.29,1.29,0,0,1-.1.491q-0.105.253-.283,0.67l-4.434,9.668a3.149,3.149,0,0,1-.342.52,0.9,0.9,0,0,1-.581.342v0.536Zm35.412-12.018-0.357-.179a1.123,1.123,0,0,1-.3.194,1.109,1.109,0,0,1-.358.044,1.6,1.6,0,0,1-.625-0.208,9.558,9.558,0,0,0-1.1-.446,13.606,13.606,0,0,0-1.547-.446,9.079,9.079,0,0,0-2.053-.209,12.354,12.354,0,0,0-3.5.461,7.582,7.582,0,0,0-2.648,1.339A5.923,5.923,0,0,0,369.882,320a7.1,7.1,0,0,0,0,5.622,5.784,5.784,0,0,0,1.667,2.1,7.355,7.355,0,0,0,2.648,1.294,13.163,13.163,0,0,0,3.5.431,15.937,15.937,0,0,0,2.589-.193,13.157,13.157,0,0,0,2.038-.491,9.668,9.668,0,0,0,1.458-.61q0.581-.312.848-0.491V327.3a0.884,0.884,0,0,1-.372-0.223,0.678,0.678,0,0,1-.074-0.372v-2.826a0.89,0.89,0,0,1,.089-0.446,0.774,0.774,0,0,1,.357-0.268V322.63H378.8a1.624,1.624,0,0,1-.566-0.089,0.475,0.475,0,0,1-.3-0.387H377.4v3.064h0.536a0.64,0.64,0,0,1,.3-0.491,1.139,1.139,0,0,1,.566-0.134h3.065v1.874a6.592,6.592,0,0,1-2.1.684,15.762,15.762,0,0,1-2.425.179,7.122,7.122,0,0,1-1.786-.238,5.263,5.263,0,0,1-1.681-.759,4,4,0,0,1-1.235-1.368,4.223,4.223,0,0,1-.476-2.1,4.561,4.561,0,0,1,.446-2.112,4.038,4.038,0,0,1,1.19-1.413,4.952,4.952,0,0,1,1.726-.8,8.354,8.354,0,0,1,2.083-.252,7.83,7.83,0,0,1,1.593.163,7.392,7.392,0,0,1,1.413.432,4.274,4.274,0,0,1,1.012.58,0.833,0.833,0,0,1,.387.58q0,0.03-.06.327l0.357,0.208Zm20.473,1.695v-3.3H403.97q0,0.535-.923.536H392.483V316.8a0.523,0.523,0,0,1,.3.1,0.39,0.39,0,0,1,.149.342v11.126a0.387,0.387,0,0,1-.149.342,0.516,0.516,0,0,1-.3.1v0.536H403.4a4.922,4.922,0,0,1,.6.029,0.259,0.259,0,0,1,.239.3h0.535v-3.124h-0.535a0.5,0.5,0,0,1-.239.432,1.027,1.027,0,0,1-.6.163h-7.618v-3.51h4.345a4.357,4.357,0,0,1,.922.075,0.284,0.284,0,0,1,.238.4h0.6v-3.153h-0.536a0.365,0.365,0,0,1-.238.4,2.688,2.688,0,0,1-.744.075h-4.583v-2.975h7.261q0.922,0,.923.565h0.535Zm8.422,10.323h3.362v-0.536a0.422,0.422,0,0,1-.5-0.446v-8.359h0.029l4.791,9.341h0.238l5.059-9.341h0.06v8.359c0.059,0.3-.119.446-0.536,0.446v0.536h3.452v-0.536a0.451,0.451,0,0,1-.283-0.1,0.407,0.407,0,0,1-.134-0.342V317.186a0.325,0.325,0,0,1,.134-0.312,0.571,0.571,0,0,1,.283-0.075v-0.535h-4.2V316.8a0.224,0.224,0,0,1,.238.268,0.837,0.837,0,0,1-.119.312c-0.079.149-.189,0.342-0.327,0.58l-3.66,6.664-3.631-6.693c-0.139-.238-0.243-0.421-0.312-0.551a0.7,0.7,0,0,1-.1-0.312,0.25,0.25,0,0,1,.3-0.268v-0.535h-4.136V316.8a0.357,0.357,0,0,1,.282.089,0.992,0.992,0,0,1,.075.506v10.888a0.569,0.569,0,0,1-.1.416,0.536,0.536,0,0,1-.253.119v0.536Zm36.75-10.323v-3.3h-0.535q0,0.535-.923.536H437.655V316.8a0.523,0.523,0,0,1,.3.1,0.389,0.389,0,0,1,.148.342v11.126a0.387,0.387,0,0,1-.148.342,0.516,0.516,0,0,1-.3.1v0.536h10.921a4.922,4.922,0,0,1,.595.029,0.259,0.259,0,0,1,.238.3h0.536v-3.124h-0.536a0.5,0.5,0,0,1-.238.432,1.027,1.027,0,0,1-.595.163h-7.618v-3.51H445.3a4.363,4.363,0,0,1,.922.075,0.284,0.284,0,0,1,.238.4h0.6v-3.153h-0.536a0.365,0.365,0,0,1-.238.4,2.688,2.688,0,0,1-.744.075h-4.583v-2.975h7.261q0.923,0,.923.565h0.535Zm8.065,10.323h3.66v-0.536c-0.417,0-.625-0.148-0.625-0.446v-8.657l7.38,7.854q0.357,0.387.64,0.684a0.881,0.881,0,0,1,.282.417c0,0.1-.069.148-0.208,0.148v0.536h3.869v-0.536a0.438,0.438,0,0,1-.536-0.446V317.245a0.438,0.438,0,0,1,.536-0.446v-0.535h-3.631V316.8q0.6,0,.6.446v8.062l-7.142-7.556a2.455,2.455,0,0,1-.654-0.8c0-.079.069-0.129,0.208-0.149v-0.535h-4.374V316.8a0.438,0.438,0,0,1,.535.446v11.126a0.438,0.438,0,0,1-.535.446v0.536Zm26.573,0h3.839v-0.536a0.438,0.438,0,0,1-.536-0.446v-9.906h3.869a0.89,0.89,0,0,1,.446.119,0.411,0.411,0,0,1,.208.387h0.536V315.55h-0.536a0.652,0.652,0,0,1-.208.565,0.749,0.749,0,0,1-.446.149H480.893a0.745,0.745,0,0,1-.446-0.149,0.649,0.649,0,0,1-.209-0.565H479.7v3.421h0.535a0.41,0.41,0,0,1,.209-0.387,0.884,0.884,0,0,1,.446-0.119h3.868v9.906a0.387,0.387,0,0,1-.148.342,0.516,0.516,0,0,1-.3.1v0.536Zm36.3-12.911h4.91a1.017,1.017,0,0,1,.521.149,0.6,0.6,0,0,1,.253.565h0.536v-4.164H526.3a0.6,0.6,0,0,1-.253.565,1.016,1.016,0,0,1-.521.148H512.317a1.016,1.016,0,0,1-.521-0.148,0.6,0.6,0,0,1-.253-0.565h-0.535v4.164h0.535a0.6,0.6,0,0,1,.253-0.565,1.017,1.017,0,0,1,.521-0.149h4.91v11.84a0.488,0.488,0,0,1-.164.4,0.567,0.567,0,0,1-.372.134v0.536h4.583v-0.536a0.532,0.532,0,0,1-.655-0.535v-11.84Zm21.917,2.157a5.288,5.288,0,0,1,1.622.892A4.425,4.425,0,0,1,545.3,320.9a4.412,4.412,0,0,1,0,3.808,4.414,4.414,0,0,1-1.145,1.413,5.29,5.29,0,0,1-1.622.893,5.7,5.7,0,0,1-3.72,0,5.279,5.279,0,0,1-1.622-.893,4.4,4.4,0,0,1-1.145-1.413,4.412,4.412,0,0,1,0-3.808,4.412,4.412,0,0,1,1.145-1.413,5.276,5.276,0,0,1,1.622-.892A5.7,5.7,0,0,1,542.536,318.6Zm-4.94-2.1a7.4,7.4,0,0,0-2.515,1.249,5.979,5.979,0,0,0-1.7,2.1,7.322,7.322,0,0,0,0,5.92,5.961,5.961,0,0,0,1.7,2.1,6.8,6.8,0,0,0,2.515,1.2,12.937,12.937,0,0,0,6.16,0,6.8,6.8,0,0,0,2.514-1.2,5.953,5.953,0,0,0,1.7-2.1,7.333,7.333,0,0,0,0-5.92,5.971,5.971,0,0,0-1.7-2.1,7.391,7.391,0,0,0-2.514-1.249A11.583,11.583,0,0,0,537.6,316.5Zm26.693,2.1a5.283,5.283,0,0,1,1.621.892,4.428,4.428,0,0,1,1.146,1.413,4.421,4.421,0,0,1,0,3.808,4.417,4.417,0,0,1-1.146,1.413,5.285,5.285,0,0,1-1.621.893,5.7,5.7,0,0,1-3.72,0,5.267,5.267,0,0,1-1.622-.893,4.417,4.417,0,0,1-1.146-1.413,4.421,4.421,0,0,1,0-3.808,4.428,4.428,0,0,1,1.146-1.413,5.265,5.265,0,0,1,1.622-.892A5.7,5.7,0,0,1,564.289,318.6Zm-4.94-2.1a7.387,7.387,0,0,0-2.515,1.249,5.979,5.979,0,0,0-1.7,2.1,7.322,7.322,0,0,0,0,5.92,5.961,5.961,0,0,0,1.7,2.1,6.8,6.8,0,0,0,2.515,1.2,12.937,12.937,0,0,0,6.16,0,6.8,6.8,0,0,0,2.514-1.2,5.95,5.95,0,0,0,1.7-2.1,7.322,7.322,0,0,0,0-5.92,5.968,5.968,0,0,0-1.7-2.1,7.391,7.391,0,0,0-2.514-1.249A11.583,11.583,0,0,0,559.349,316.5Zm18.018-.238V316.8c0.515,0,.774.149,0.774,0.446v11.126c0,0.3-.259.446-0.774,0.446v0.536h11.665a4.922,4.922,0,0,1,.595.029,0.242,0.242,0,0,1,.238.268H590.4v-3.123h-0.536a0.527,0.527,0,0,1-.238.461,1.027,1.027,0,0,1-.595.163H581v-9.906q0-.446.685-0.446v-0.535h-4.315Z" transform="translate(-180.594 -313)"/>
</svg>
